HIERARCHY
ROOT Hips
{
	OFFSET -0.001795 -0.223333 0.028219
	CHANNELS 6 Xposition Yposition Zposition Zrotation Yrotation Xrotation 
	JOINT LeftUpLeg
	{
		OFFSET 0.069520 -0.091406 -0.006815
		CHANNELS 3 Zrotation Yrotation Xrotation
		JOINT LeftLeg
		{
			OFFSET 0.034277 -0.375199 -0.004496
			CHANNELS 3 Zrotation Yrotation Xrotation
			JOINT LeftFoot
			{
				OFFSET -0.013596 -0.397961 -0.043693
				CHANNELS 3 Zrotation Yrotation Xrotation
				JOINT LeftToe
				{
					OFFSET 0.026358 -0.055791 0.119288
					CHANNELS 3 Zrotation Yrotation Xrotation
					End Site
					{
						OFFSET 0.000000 0.000000 0.000000
					}
				}
			}
		}
	}
	JOINT RightUpLeg
	{
		OFFSET -0.067670 -0.090522 -0.004320
		CHANNELS 3 Zrotation Yrotation Xrotation
		JOINT RightLeg
		{
			OFFSET -0.038290 -0.382569 -0.008850
			CHANNELS 3 Zrotation Yrotation Xrotation
			JOINT RightFoot
			{
				OFFSET 0.015774 -0.398415 -0.042312
				CHANNELS 3 Zrotation Yrotation Xrotation
				JOINT RightToe
				{
					OFFSET -0.025372 -0.048144 0.123348
					CHANNELS 3 Zrotation Yrotation Xrotation
					End Site
					{
						OFFSET 0.000000 0.000000 0.000000
					}
				}
			}
		}
	}
	JOINT Spine
	{
		OFFSET -0.002533 0.108963 -0.026696
		CHANNELS 3 Zrotation Yrotation Xrotation
		JOINT Spine1
		{
			OFFSET 0.005487 0.135180 0.001092
			CHANNELS 3 Zrotation Yrotation Xrotation
			JOINT Spine2
			{
				OFFSET 0.001457 0.052922 0.025425
				CHANNELS 3 Zrotation Yrotation Xrotation
				JOINT Neck
				{
					OFFSET -0.002778 0.213870 -0.042857
					CHANNELS 3 Zrotation Yrotation Xrotation
					JOINT Head
					{
						OFFSET 0.005152 0.064970 0.051349
						CHANNELS 3 Zrotation Yrotation Xrotation
						End Site
						{
							OFFSET 0.000000 0.000000 0.000000
						}
					}
				}
				JOINT LeftShoulder
				{
					OFFSET 0.078845 0.121749 -0.034090
					CHANNELS 3 Zrotation Yrotation Xrotation
					JOINT LeftArm
					{
						OFFSET 0.090977 0.030469 -0.008868
						CHANNELS 3 Zrotation Yrotation Xrotation
						JOINT LeftForeArm
						{
							OFFSET 0.259612 -0.012772 -0.027456
							CHANNELS 3 Zrotation Yrotation Xrotation
							JOINT LeftHand
							{
								OFFSET 0.249234 0.008986 -0.001171
								CHANNELS 3 Zrotation Yrotation Xrotation
								End Site
								{
									OFFSET 0.000000 0.000000 0.000000
								}
							}
						}
					}
				}
				JOINT RightShoulder
				{
					OFFSET -0.081759 0.118833 -0.038615
					CHANNELS 3 Zrotation Yrotation Xrotation
					JOINT RightArm
					{
						OFFSET -0.096012 0.032551 -0.009143
						CHANNELS 3 Zrotation Yrotation Xrotation
						JOINT RightForeArm
						{
							OFFSET -0.253742 -0.013329 -0.021401
							CHANNELS 3 Zrotation Yrotation Xrotation
							JOINT RightHand
							{
								OFFSET -0.255298 0.007772 -0.005559
								CHANNELS 3 Zrotation Yrotation Xrotation
								End Site
								{
									OFFSET 0.000000 0.000000 0.000000
								}
							}
						}
					}
				}
			}
		}
	}
}
MOTION
Frames: 8
Frame Time: 0.050000
0.320472 0.944829 2.090652 -179.266155 -15.560085 175.790278 7.317337 13.749671 -6.732269 37.347357 35.872613 55.139689 -42.322815 -8.004413 8.990761 0.000000 0.000000 0.000000 2.516669 3.280222 -1.170107 10.753639 12.830328 -0.076408 -85.366694 45.961192 25.589086 0.000000 0.000000 0.000000 0.071294 0.214220 6.839077 20.885394 24.677341 13.597616 -14.962930 -31.642075 13.664821 75.581672 27.617887 51.182416 0.000000 0.000000 0.000000 -19.396093 5.231355 82.186554 32.242464 -62.661083 -30.634333 29.412456 -2.706157 -3.617864 0.000000 0.000000 0.000000 0.025375 31.053648 -96.669086 -0.100236 -69.772561 13.816607 27.378783 16.311415 -1.511481 0.000000 0.000000 0.000000 
0.311603 0.944989 2.066051 -179.244853 -14.775457 175.416658 6.377221 14.273034 -9.679251 25.699254 31.981314 43.293018 -37.761010 -3.897603 0.786348 0.000000 0.000000 0.000000 3.363391 3.954620 1.484639 9.383301 11.785748 -0.810922 -84.297150 45.555855 25.415841 0.000000 0.000000 0.000000 -0.516325 0.446741 7.391334 21.102252 24.898023 13.644960 -14.547413 -31.208466 13.178887 74.651378 28.329840 50.118216 0.000000 0.000000 0.000000 -20.605137 4.448943 82.575666 32.284651 -61.213803 -30.748720 28.417665 -1.478301 -3.223139 0.000000 0.000000 0.000000 -0.231784 31.872708 -95.231738 7.460918 -68.938285 7.939966 28.214000 16.230396 -1.446437 0.000000 0.000000 0.000000 
0.301755 0.944211 2.042124 -179.383906 -13.501845 175.606051 5.668522 15.576698 -12.574344 12.828251 25.675142 30.018945 -29.942622 2.886259 -4.083254 0.000000 0.000000 0.000000 3.540748 4.621682 2.867415 9.252401 11.095915 0.677391 -86.985454 45.528610 23.470324 0.000000 0.000000 0.000000 -1.068965 0.639333 7.593762 22.295755 26.004166 14.908620 -15.083354 -31.845935 12.733818 69.259053 30.486526 48.015186 0.000000 0.000000 0.000000 -20.515109 4.396383 83.778083 33.739235 -61.171827 -31.837270 28.354124 0.428693 -2.664137 0.000000 0.000000 0.000000 -1.548052 32.782189 -95.323213 11.279451 -68.784849 4.667242 28.546093 16.231761 -1.603717 0.000000 0.000000 0.000000 
0.290948 0.943216 2.018425 -179.459057 -13.824362 175.496866 4.913930 16.433672 -15.039684 4.326582 19.006586 19.755766 -23.283350 7.385415 -1.212747 0.000000 0.000000 0.000000 4.559450 5.323840 5.070393 7.258716 9.189772 0.768895 -79.886584 38.094423 22.684660 0.000000 0.000000 0.000000 -1.899503 0.979568 7.863817 21.401711 25.284842 14.341089 -14.139521 -31.658997 12.635055 63.984749 31.372392 45.919977 0.000000 0.000000 0.000000 -21.052129 4.165116 81.996246 31.312499 -61.292648 -30.341774 28.044429 1.389547 -2.158713 0.000000 0.000000 0.000000 -1.940880 33.447499 -92.131128 23.542437 -67.613170 -5.279595 28.201477 17.279771 -1.780767 0.000000 0.000000 0.000000 
0.278816 0.941028 1.993902 -179.396908 -12.120260 176.518867 3.923865 18.273017 -18.097743 0.093271 14.071312 12.602468 -17.997720 9.403067 4.827421 0.000000 0.000000 0.000000 4.634024 5.566397 5.161005 6.936452 8.898881 1.883184 -84.170564 38.684133 19.360565 0.000000 0.000000 0.000000 -2.574044 1.002257 6.740672 22.670192 26.311897 15.507346 -15.718007 -31.636033 12.468786 60.471193 33.503917 43.607178 0.000000 0.000000 0.000000 -20.349089 5.606035 84.681765 34.575288 -60.452888 -31.754330 27.441913 1.840456 -2.053042 0.000000 0.000000 0.000000 -3.488095 32.046546 -98.215939 14.188609 -71.803963 1.034105 30.048378 15.013366 -2.317359 0.000000 0.000000 0.000000 
0.264553 0.937623 1.967000 -179.244326 -11.317196 176.243692 3.520373 18.238044 -18.519594 -2.266817 10.262676 6.447638 -18.778820 10.426228 7.129323 0.000000 0.000000 0.000000 5.326270 6.706229 7.358041 5.880832 7.978714 1.639754 -84.530260 36.179866 17.517132 0.000000 0.000000 0.000000 -3.914321 1.484129 6.385057 22.948561 25.901360 15.164693 -15.614428 -31.155210 13.270271 61.765803 33.824719 44.212140 0.000000 0.000000 0.000000 -19.196506 6.164612 86.655421 37.491916 -59.607781 -32.510579 27.069443 3.017133 -1.732443 0.000000 0.000000 0.000000 -5.393519 33.466451 -98.449453 18.846006 -72.953657 -4.093953 30.728193 15.188160 -2.765014 0.000000 0.000000 0.000000 
0.248126 0.932937 1.937507 -179.400279 -9.327095 177.203375 3.206024 19.796170 -19.842436 -3.952337 8.486294 2.191104 -24.477866 9.867133 7.910702 0.000000 0.000000 0.000000 4.472812 7.297785 7.395536 6.873093 8.387290 3.961319 -93.716522 38.520442 14.507424 0.000000 0.000000 0.000000 -5.498854 1.969386 4.996448 25.516842 27.262673 17.060211 -17.375632 -30.869993 12.775821 60.230953 34.368810 42.154560 0.000000 0.000000 0.000000 -19.013336 6.566922 87.672729 36.981292 -58.712569 -31.509501 26.362687 2.938314 -1.679562 0.000000 0.000000 0.000000 -5.202863 31.897851 -100.970560 12.702851 -74.471412 0.711952 31.216179 13.269084 -3.006680 0.000000 0.000000 0.000000 
0.229641 0.926290 1.905738 -179.346266 -8.364517 176.661406 2.720250 19.702710 -20.312209 -2.954439 7.574240 1.844039 -34.472290 10.421254 5.858503 0.000000 0.000000 0.000000 5.054882 10.328004 11.485333 6.546652 7.819160 2.249486 -94.445645 39.808249 16.941132 0.000000 0.000000 0.000000 -6.752402 2.754354 5.351609 25.151046 26.950458 16.588528 -17.405089 -30.563694 14.123074 52.953981 36.486095 37.172272 0.000000 0.000000 0.000000 -18.778158 7.036250 89.498579 40.929343 -57.694775 -33.508095 24.919819 5.323633 -0.963110 0.000000 0.000000 0.000000 -5.137264 34.174185 -102.312623 10.517024 -74.236526 3.945067 29.744520 14.212653 -2.887633 0.000000 0.000000 0.000000 
